# xmcd
#
# Track frame offsets:
#	150
#	21645
#	34223
#	59102
#	71219
#	96956
#	102823
#	110584
#	124121
#	143835
#	160792
#	176845
#	190979
#	212102
#	223890
#	243839
#	256883
#	273312
#	292454
#	306307
#	327303
#	339114
#	356586
#
# Disc length: 4778 seconds
#
# Revision: 0
# Processed by: cddbd v1.4PL0 Copyright (c) Steve Scherf et al.
# Submitted via: EasyCDDAExtractor 4.6.9.1
#
DISCID=7c12a817
DTITLE=Music Maker Relief Foundation - Songs from the Roots of America Vol 1
DYEAR=2003
DGENRE=Blues
TTITLE0=Mistreated Blues, John Dee Holeman and Taj Mahal
TTITLE1=Chokin' Kind, Captan Luke and Cool John
TTITLE2=Shortnin' Bread, Neal Pattman and Taj Mahal
TTITLE3=Do you Know What it Means to Have a Friend? Guitar Gabriel and Lucille
TTITLE3=Lindsey
TTITLE4=Jigroo, Cootie Stark
TTITLE5=Peter Rumpkin, Willa Mae Buckner
TTITLE6=When You Kill a Chicken, Save Me the Head, Algia Mae Hinton
TTITLE7=Turn Off the Fear, Carl Rutherford
TTITLE8=Miz Dr. Feelgood, Beverly "Guitar" Watkins
TTITLE9=Where You Been? Jerry "Boogie" McCain
TTITLE10=Rain in Your Life, Essie Mae Brooks
TTITLE11=Carolina Breakdown, Etta Baker
TTITLE12=Old Bill, Big Boy Henry
TTITLE13=Railroadin' and Gamblin', Samuel Turner Stevens
TTITLE14=Goin' Away, John Lee Zeigler
TTITLE15=Let's Talk It Over, Macavine Hayes
TTITLE16=C.C. Rider, Eddie Tigner
TTITLE17=Cold and Rainy Day, Cora Mae Bryant
TTITLE18=Greasy Greens, George Higgs
TTITLE19=Strollin' on the Waterfront, Cool John Ferguson
TTITLE20=Fever, Precious Bryant
TTITLE21=Black Mattie, sol
TTITLE22=Crickets
EXTD=
EXTT0=
EXTT1=
EXTT2=
EXTT3=
EXTT4=
EXTT5=
EXTT6=
EXTT7=
EXTT8=
EXTT9=
EXTT10=
EXTT11=
EXTT12=
EXTT13=
EXTT14=
EXTT15=
EXTT16=
EXTT17=
EXTT18=
EXTT19=
EXTT20=
EXTT21=
EXTT22=
PLAYORDER=
